<svg width="12" height="15" viewBox="0 0 12 15" fill="none" xmlns="http://www.w3.org/2000/svg">
<path d="M6.17773 8.44775H2.34277L2.32227 6.33545H5.54199C6.10938 6.33545 6.57422 6.26367 6.93652 6.12012C7.29883 5.96973 7.56885 5.75439 7.74658 5.47412C7.93115 5.18701 8.02344 4.83838 8.02344 4.42822C8.02344 3.96338 7.93457 3.5874 7.75684 3.30029C7.58594 3.01318 7.31592 2.80469 6.94678 2.6748C6.58447 2.54492 6.11621 2.47998 5.54199 2.47998H3.40918V15H0.333008V0.0703125H5.54199C6.41016 0.0703125 7.18604 0.152344 7.86963 0.316406C8.56006 0.480469 9.14453 0.72998 9.62305 1.06494C10.1016 1.3999 10.4673 1.82373 10.7202 2.33643C10.9731 2.84229 11.0996 3.44385 11.0996 4.14111C11.0996 4.75635 10.9595 5.32373 10.6792 5.84326C10.4058 6.36279 9.97168 6.78662 9.37695 7.11475C8.78906 7.44287 8.02002 7.62402 7.06982 7.6582L6.17773 8.44775ZM6.04443 15H1.50195L2.70166 12.6006H6.04443C6.58447 12.6006 7.02539 12.5151 7.36719 12.3442C7.70898 12.1665 7.96191 11.9272 8.12598 11.6265C8.29004 11.3257 8.37207 10.9805 8.37207 10.5908C8.37207 10.1533 8.29688 9.77393 8.14648 9.45264C8.00293 9.13135 7.77051 8.88525 7.44922 8.71436C7.12793 8.53662 6.7041 8.44775 6.17773 8.44775H3.21436L3.23486 6.33545H6.92627L7.63379 7.16602C8.54297 7.15234 9.27441 7.31299 9.82812 7.64795C10.3887 7.97607 10.7954 8.40332 11.0483 8.92969C11.3081 9.45605 11.438 10.02 11.438 10.6216C11.438 11.5786 11.2295 12.3853 10.8125 13.0415C10.3955 13.6909 9.78369 14.1797 8.97705 14.5078C8.17725 14.8359 7.19971 15 6.04443 15Z" fill="#333333"/>
</svg>
