<svg width="15" height="15" viewBox="0 0 15 15" fill="none" xmlns="http://www.w3.org/2000/svg">
<path d="M3 13.0018V11.8318H15V13.001L3 13.0018ZM3 9.4925V8.32245H15V9.4925H3ZM3 5.9832V4.81399H15V5.9832H3ZM3 2.47389V1.30469H15V2.47389H3Z" fill="#333333"/>
<path d="M1.32386 1.09091V4H0.971591V1.46023H0.954545L0.244318 1.93182V1.57386L0.971591 1.09091H1.32386Z" fill="#3078CD"/>
<path d="M0.301136 9V8.74432L1.26136 7.69318C1.37405 7.57008 1.46686 7.46307 1.53977 7.37216C1.61269 7.2803 1.66667 7.19413 1.7017 7.11364C1.73769 7.0322 1.75568 6.94697 1.75568 6.85795C1.75568 6.75568 1.73106 6.66714 1.68182 6.59233C1.63352 6.51752 1.56723 6.45975 1.48295 6.41903C1.39867 6.37831 1.30398 6.35795 1.19886 6.35795C1.08712 6.35795 0.989583 6.38116 0.90625 6.42756C0.823864 6.47301 0.759943 6.53693 0.714489 6.61932C0.669981 6.7017 0.647727 6.7983 0.647727 6.90909H0.3125C0.3125 6.73864 0.351799 6.58902 0.430398 6.46023C0.508996 6.33144 0.616004 6.23106 0.75142 6.15909C0.887784 6.08712 1.04072 6.05114 1.21023 6.05114C1.38068 6.05114 1.53172 6.08712 1.66335 6.15909C1.79498 6.23106 1.8982 6.32812 1.97301 6.45028C2.04782 6.57244 2.08523 6.70833 2.08523 6.85795C2.08523 6.96496 2.06581 7.0696 2.02699 7.17188C1.98911 7.2732 1.92282 7.38636 1.82812 7.51136C1.73438 7.63542 1.60417 7.78693 1.4375 7.96591L0.784091 8.66477V8.6875H2.13636V9H0.301136Z" fill="#3078CD"/>
<path d="M1.28409 14.0398C1.09659 14.0398 0.929451 14.0076 0.78267 13.9432C0.636837 13.8788 0.520833 13.7893 0.434659 13.6747C0.349432 13.5592 0.30303 13.4252 0.295455 13.2727H0.653409C0.660985 13.3665 0.693182 13.4474 0.75 13.5156C0.806818 13.5829 0.881155 13.6349 0.973011 13.6719C1.06487 13.7088 1.16667 13.7273 1.27841 13.7273C1.40341 13.7273 1.5142 13.7055 1.6108 13.6619C1.70739 13.6184 1.78314 13.5578 1.83807 13.4801C1.89299 13.4025 1.92045 13.3125 1.92045 13.2102C1.92045 13.1032 1.89394 13.009 1.84091 12.9276C1.78788 12.8452 1.71023 12.7808 1.60795 12.7344C1.50568 12.688 1.38068 12.6648 1.23295 12.6648H1V12.3523H1.23295C1.34848 12.3523 1.44981 12.3314 1.53693 12.2898C1.625 12.2481 1.69366 12.1894 1.7429 12.1136C1.79309 12.0379 1.81818 11.9489 1.81818 11.8466C1.81818 11.7481 1.7964 11.6624 1.75284 11.5895C1.70928 11.5166 1.64773 11.4598 1.56818 11.419C1.48958 11.3783 1.39678 11.358 1.28977 11.358C1.18939 11.358 1.0947 11.3764 1.00568 11.4134C0.917614 11.4493 0.845644 11.5019 0.789773 11.571C0.733902 11.6392 0.703599 11.7216 0.698864 11.8182H0.357955C0.363636 11.6657 0.409564 11.5322 0.495739 11.4176C0.581913 11.3021 0.694602 11.2121 0.833807 11.1477C0.973958 11.0833 1.12784 11.0511 1.29545 11.0511C1.47538 11.0511 1.62973 11.0876 1.75852 11.1605C1.88731 11.2325 1.98627 11.3277 2.0554 11.446C2.12453 11.5644 2.15909 11.6922 2.15909 11.8295C2.15909 11.9934 2.116 12.133 2.02983 12.2486C1.9446 12.3641 1.8286 12.4441 1.68182 12.4886V12.5114C1.86553 12.5417 2.009 12.6198 2.11222 12.7457C2.21544 12.8707 2.26705 13.0256 2.26705 13.2102C2.26705 13.3684 2.22396 13.5104 2.13778 13.6364C2.05256 13.7614 1.93608 13.8598 1.78835 13.9318C1.64063 14.0038 1.47254 14.0398 1.28409 14.0398Z" fill="#3078CD"/>
</svg>
