<svg width="12" height="18" viewBox="0 0 12 18" fill="none" xmlns="http://www.w3.org/2000/svg">
<path d="M8.48011 3.09091H9.80114V10.3139C9.80114 11.0597 9.62536 11.7255 9.27379 12.3114C8.92578 12.8938 8.43395 13.3537 7.7983 13.6911C7.16264 14.0249 6.4169 14.1918 5.56108 14.1918C4.70526 14.1918 3.95952 14.0249 3.32386 13.6911C2.68821 13.3537 2.1946 12.8938 1.84304 12.3114C1.49503 11.7255 1.32102 11.0597 1.32102 10.3139V3.09091H2.64205V10.2074C2.64205 10.7401 2.75923 11.2141 2.99361 11.6296C3.22798 12.0415 3.56179 12.3665 3.99503 12.6044C4.43182 12.8388 4.95384 12.956 5.56108 12.956C6.16832 12.956 6.69034 12.8388 7.12713 12.6044C7.56392 12.3665 7.89773 12.0415 8.12855 11.6296C8.36293 11.2141 8.48011 10.7401 8.48011 10.2074V3.09091Z" fill="#333333"/>
<path d="M11 16H1V17H11V16Z" fill="#333333"/>
</svg>
